# xmcd
#
# Track frame offsets:
#	150
#	13687
#	29217
#	41480
#	51732
#	66560
#	83720
#	95670
#	109017
#	118830
#
# Disc length: 1733 seconds
#
# Revision: 0
# Processed by: cddbd v1.5.1PL0 Copyright (c) Steve Scherf et al.
# Submitted via: dBpowerAMP V4.0
#
DISCID=9306c30a
DTITLE=Gene Watson - Gene Watson
DYEAR=1986
DGENRE=Country
TTITLE0=Between This Time And The Next Time
TTITLE1=Maybe I Should Have Been Listening
TTITLE2=Fourteen Carat Mind
TTITLE3=Speak Softly ( You're Talking To My Heart )
TTITLE4=This Dream's On Me
TTITLE5=What She Don't Know Won't Hurt Her
TTITLE6=You're Out Doing What I'm Here Doing Without
TTITLE7=Sometimes I Get Lucky And Forget
TTITLE8=Drinkin' My Way Back Home
TTITLE9=Forever Again
EXTD=
EXTT0=
EXTT1=
EXTT2=
EXTT3=
EXTT4=
EXTT5=
EXTT6=
EXTT7=
EXTT8=
EXTT9=
PLAYORDER=
